<svg width="20" height="19" viewBox="0 0 20 19" fill="none" xmlns="http://www.w3.org/2000/svg">
<mask id="mask0" maskUnits="userSpaceOnUse" x="0" y="0" width="20" height="19">
<path fill-rule="evenodd" clip-rule="evenodd" d="M10.0023 0.375488C5.01755 0.375488 0.980103 4.41293 0.980103 9.39771C0.980103 14.3825 5.01755 18.4199 10.0023 18.4199C14.9871 18.4199 19.0245 14.3825 19.0245 9.39771C19.0245 4.41293 14.9871 0.375488 10.0023 0.375488ZM14.5134 10.2999H5.49122V8.49546H14.5134V10.2999Z" fill="#a5a5a5"/>
</mask>
<g mask="url(#mask0)">
<path fill-rule="evenodd" clip-rule="evenodd" d="M19.0444 9.0222C19.0444 4.03745 15.007 7.77192e-07 10.0222 5.593e-07C5.0374 3.41408e-07 1 4.03745 1 9.0222C0.999999 14.007 5.0374 18.0444 10.0222 18.0444C15.007 18.0444 19.0444 14.007 19.0444 9.0222ZM9.12 13.5333L9.12 4.51112L10.9244 4.51112L10.9244 13.5333L9.12 13.5333Z" fill="#a5a5a5"/>
</g>
</svg>
